<svg width="22" height="22" viewBox="0 0 22 22" fill="none" xmlns="http://www.w3.org/2000/svg">
<path d="M-1.06765e-06 11.0593L-1.05735e-06 10.9416C0.0257806 10.6786 0.124896 10.4607 0.297343 10.288C3.28023 7.30512 6.16387 4.42363 8.94824 1.64356C9.16079 1.43129 9.40987 1.3296 9.69547 1.33848C10.5802 1.36555 10.9837 2.42902 10.3628 3.05035C8.05592 5.35806 5.7485 7.66548 3.44051 9.97262C3.42532 9.9878 3.42848 9.99539 3.44996 9.99539C9.28941 10.002 15.129 10.0037 20.9688 10.0005C21.5269 10.0001 21.9523 10.3929 22 10.9476L22 11.0559C21.9757 11.3128 21.8813 11.5257 21.7168 11.6944C21.5874 11.8279 21.4341 11.9175 21.2571 11.9634C21.1585 11.9889 20.9965 12.0016 20.7711 12.0016C15.0419 11.9976 9.2655 11.9973 3.4418 12.0007C3.43953 12.0007 3.43731 12.0013 3.43544 12.0025C3.43356 12.0038 3.4321 12.0056 3.43127 12.0077C3.43043 12.0099 3.43025 12.0122 3.43075 12.0145C3.43125 12.0168 3.4324 12.0189 3.43406 12.0205C5.74005 14.3265 8.0469 16.6333 10.3546 18.9411C10.743 19.3295 10.7783 19.9586 10.3838 20.3586C10.0671 20.6796 9.57902 20.7604 9.18457 20.5412C9.09806 20.4931 8.9723 20.3865 8.8073 20.2215C5.97767 17.3925 3.14803 14.5634 0.318398 11.7343C0.132485 11.5481 0.0263527 11.3231 -1.06765e-06 11.0593Z" fill="#EBEBEB"/>
</svg>
