<svg width="22" height="22" viewBox="0 0 22 22" fill="none" xmlns="http://www.w3.org/2000/svg">
<path d="M22 10.9407V11.0584C21.9742 11.3214 21.8751 11.5393 21.7027 11.712C18.7198 14.6949 15.8361 17.5764 13.0518 20.3564C12.8392 20.5687 12.5901 20.6704 12.3045 20.6615C11.4198 20.6345 11.0163 19.571 11.6372 18.9496C13.9441 16.6419 16.2515 14.3345 18.5595 12.0274C18.5747 12.0122 18.5715 12.0046 18.55 12.0046C12.7106 11.998 6.87099 11.9963 1.03125 11.9995C0.473086 11.9999 0.0476953 11.6071 0 11.0524V10.9441C0.024349 10.6872 0.118737 10.4743 0.283164 10.3056C0.412643 10.1721 0.565898 10.0825 0.74293 10.0366C0.841471 10.0111 1.00346 9.9984 1.22891 9.9984C6.95807 10.0024 12.7345 10.0027 18.5582 9.99926C18.5605 9.99934 18.5627 9.99871 18.5646 9.99747C18.5664 9.99622 18.5679 9.99441 18.5687 9.99228C18.5696 9.99014 18.5697 9.98777 18.5693 9.98549C18.5688 9.98321 18.5676 9.98112 18.5659 9.97949C16.2599 7.6735 13.9531 5.36665 11.6454 3.05894C11.257 2.67051 11.2217 2.04144 11.6162 1.64141C11.9329 1.32043 12.421 1.23965 12.8154 1.45879C12.9019 1.50691 13.0277 1.61348 13.1927 1.77848C16.0223 4.60754 18.852 7.4366 21.6816 10.2657C21.8675 10.4519 21.9736 10.6769 22 10.9407Z" fill="#818181"/>
</svg>
